<svg width="24" height="25" viewBox="0 0 24 25" fill="none" xmlns="http://www.w3.org/2000/svg">
<g clip-path="url(#clip0_330_369)">
<path d="M24 12.3228C24 5.70482 18.624 0.334824 12 0.334824C5.376 0.334824 0 5.70482 0 12.3228C0 15.9678 1.656 19.2528 4.248 21.4578C4.272 21.4818 4.296 21.4818 4.296 21.5058C4.512 21.6738 4.728 21.8418 4.968 22.0098C5.088 22.0818 5.184 22.1763 5.304 22.2723C7.28791 23.6152 9.62834 24.3335 12.024 24.3348C14.4197 24.3335 16.7601 23.6152 18.744 22.2723C18.864 22.2003 18.96 22.1058 19.08 22.0323C19.296 21.8658 19.536 21.6978 19.752 21.5298C19.776 21.5058 19.8 21.5058 19.8 21.4818C22.344 19.2513 24 15.9678 24 12.3228ZM12 22.8243C9.744 22.8243 7.68 22.1043 5.976 20.9058C6 20.7138 6.048 20.5233 6.096 20.3313C6.23948 19.8111 6.4492 19.3116 6.72 18.8448C6.984 18.3888 7.296 17.9808 7.68 17.6208C8.04 17.2608 8.472 16.9263 8.904 16.6623C9.36 16.3983 9.84 16.2063 10.368 16.0623C10.9003 15.9198 11.449 15.8476 12 15.8478C13.6361 15.8354 15.2123 16.4631 16.392 17.5968C16.944 18.1488 17.376 18.7963 17.688 19.5393C17.856 19.9713 17.976 20.4268 18.048 20.9058C16.2768 22.1511 14.1652 22.8209 12 22.8243ZM8.328 11.7243C8.11697 11.24 8.01065 10.7166 8.016 10.1883C8.016 9.66182 8.112 9.13382 8.328 8.65382C8.544 8.17382 8.832 7.74332 9.192 7.38332C9.552 7.02332 9.984 6.73682 10.464 6.52082C10.944 6.30482 11.472 6.20882 12 6.20882C12.552 6.20882 13.056 6.30482 13.536 6.52082C14.016 6.73682 14.448 7.02482 14.808 7.38332C15.168 7.74332 15.456 8.17532 15.672 8.65382C15.888 9.13382 15.984 9.66182 15.984 10.1883C15.984 10.7403 15.888 11.2443 15.672 11.7228C15.4647 12.1964 15.1718 12.6276 14.808 12.9948C14.4407 13.3581 14.0094 13.6505 13.536 13.8573C12.5441 14.2641 11.4319 14.2641 10.44 13.8573C9.96656 13.6505 9.53534 13.3581 9.168 12.9948C8.80387 12.6328 8.51796 12.2014 8.328 11.7243ZM19.464 19.6833C19.464 19.6353 19.44 19.6113 19.44 19.5633C19.2044 18.8123 18.8564 18.1012 18.408 17.4543C17.9592 16.8027 17.4081 16.2278 16.776 15.7518C16.2931 15.3884 15.7696 15.0824 15.216 14.8398C15.4667 14.6721 15.6998 14.4797 15.912 14.2653C16.2698 13.9121 16.584 13.5173 16.848 13.0893C17.3814 12.2168 17.656 11.2108 17.64 10.1883C17.6478 9.43156 17.5008 8.68118 17.208 7.98332C16.9192 7.3108 16.5037 6.70018 15.984 6.18482C15.4638 5.6764 14.8534 5.26944 14.184 4.98482C13.4851 4.6921 12.7337 4.54559 11.976 4.55432C11.2182 4.54607 10.4668 4.69309 9.768 4.98632C9.09127 5.26747 8.47883 5.68341 7.968 6.20882C7.45692 6.72628 7.0496 7.33676 6.768 8.00732C6.47517 8.70518 6.32816 9.45556 6.336 10.2123C6.336 10.7403 6.408 11.2438 6.552 11.7228C6.696 12.2268 6.888 12.6828 7.152 13.1133C7.392 13.5453 7.728 13.9293 8.088 14.2893C8.304 14.5053 8.544 14.6968 8.808 14.8638C8.25195 15.1114 7.72809 15.4257 7.248 15.7998C6.624 16.2798 6.072 16.8543 5.616 17.4783C5.16341 18.1228 4.81514 18.8345 4.584 19.5873C4.56 19.6353 4.56 19.6833 4.56 19.7073C2.664 17.7888 1.488 15.1998 1.488 12.3228C1.488 6.54482 6.216 1.82132 12 1.82132C17.784 1.82132 22.512 6.54482 22.512 12.3228C22.5089 15.0828 21.413 17.7292 19.464 19.6833Z" fill="#878787"/>
</g>
<defs>
<clipPath id="clip0_330_369">
<rect width="24" height="24" fill="white" transform="translate(0 0.334824)"/>
</clipPath>
</defs>
</svg>
